# xmcd
#
# Track frame offsets:
#	150
#	12419
#	28623
#	44258
#	61774
#	78183
#	91746
#	107346
#	125984
#	140431
# Disc length: 2098 seconds
# Revision: 1
# Processed by: cddbd v1.5.2PL0 Copyright (c) Steve Scherf et al.
#
# Submitted via: libkcddb 0.31
#
DISCID=7608300a
DTITLE=Various Artist - Next Generation Country
DYEAR=2008
DGENRE=Country
TTITLE0=Jonah's Road - giddy up
TTITLE1=Casey Watt - Half the Fun
TTITLE2=Sam Hawksley - Twistin In the Wind
TTITLE3=Jetty Road - City Lights
TTITLE4=Tom Curtain - Skye High
TTITLE5=Luke O'Shea - Good Day To Die
TTITLE6=Rose Carleo - I've Just Got The Blues
TTITLE7=Carter and Carter - Puttin Off 'Til Tomorrow
TTITLE8=Nicki Gillis - Be A Star
TTITLE9=Tracy Killeen - Good Friends and Good Times
EXTD=
EXTT0=
EXTT1=
EXTT2=
EXTT3=
EXTT4=
EXTT5=
EXTT6=
EXTT7=
EXTT8=
EXTT9=
PLAYORDER=
